<?xml version="1.0" standalone="no"?>
<!DOCTYPE svg PUBLIC "-//W3C//DTD SVG 20010904//EN"
 "http://www.w3.org/TR/2001/REC-SVG-20010904/DTD/svg10.dtd">
<svg version="1.0" xmlns="http://www.w3.org/2000/svg"
 width="383.000000pt" height="383.000000pt" viewBox="0 0 383.000000 383.000000"
 preserveAspectRatio="xMidYMid meet">
<metadata>
Created by potrace 1.14, written by Peter Selinger 2001-2017
</metadata>
<g transform="translate(0.000000,383.000000) scale(0.100000,-0.100000)"
fill="#000000" stroke="none">
<path d="M1847 3704 c-1 -1 -36 -5 -77 -8 -352 -26 -677 -152 -962 -374 -32
-25 -58 -48 -58 -52 0 -4 273 -7 608 -7 584 0 609 -1 652 -20 53 -23 103 -77
120 -129 15 -43 20 -383 6 -391 -4 -3 -31 -6 -58 -7 -44 -1 -52 2 -63 25 -19
35 -38 50 -82 59 -73 17 -133 -29 -140 -107 -6 -56 19 -97 72 -119 55 -23 138
12 156 65 4 11 94 21 115 14 13 -5 9 -61 -7 -111 -46 -143 -241 -189 -353 -84
-58 54 -66 89 -66 286 l0 179 35 34 c34 33 39 48 37 103 -4 88 -112 133 -188
80 -23 -16 -51 -68 -48 -87 1 -7 2 -23 3 -36 1 -24 28 -59 57 -75 14 -8 17
-36 18 -208 2 -200 2 -200 31 -253 16 -29 49 -70 72 -91 l43 -38 -32 -12 c-18
-8 -52 -26 -75 -41 -24 -16 -43 -25 -44 -21 -1 7 -3 20 -14 81 -8 40 -41 96
-84 139 -17 17 -104 72 -194 124 -89 51 -175 101 -192 111 -81 47 -120 60
-195 60 -67 1 -82 -3 -138 -33 -35 -18 -72 -45 -83 -59 -10 -14 -22 -30 -27
-36 -7 -9 -104 -176 -160 -275 -61 -109 -66 -102 -21 26 83 236 253 479 448
640 92 76 89 74 96 74 4 0 13 7 21 15 14 13 7 15 -57 15 l-72 0 -61 -52 c-262
-228 -433 -512 -513 -853 -2 -11 -7 -36 -9 -55 -16 -113 -26 -141 -89 -250
l-66 -115 2 125 c8 421 170 815 463 1125 36 38 66 71 66 72 0 2 -25 3 -55 3
-51 0 -57 -3 -95 -42 -203 -210 -392 -590 -435 -873 -3 -16 -7 -41 -10 -55 -9
-40 -18 -167 -18 -270 -1 -133 18 -330 32 -330 6 0 45 63 97 155 15 28 53 93
84 145 31 52 59 102 63 110 4 8 20 36 35 61 15 25 94 161 175 301 81 141 162
271 180 288 34 35 92 64 107 55 5 -3 11 -1 14 3 11 18 107 -7 168 -44 35 -20
88 -50 118 -67 72 -40 130 -76 130 -82 0 -2 -12 -24 -27 -49 -23 -37 -32 -44
-58 -44 -53 0 -91 -26 -110 -77 -16 -40 -16 -49 -4 -82 17 -45 69 -83 113 -83
87 0 147 95 107 172 -18 36 -18 37 7 82 27 49 41 55 66 31 8 -8 19 -15 24 -15
16 0 71 -90 78 -127 20 -107 -50 -223 -152 -252 -74 -20 -118 -7 -282 88 -145
83 -157 92 -159 121 -8 89 -112 140 -187 91 -80 -53 -73 -167 12 -207 36 -17
95 -12 121 9 11 9 15 9 18 0 3 -7 9 -13 13 -13 5 0 50 -24 100 -54 49 -30 90
-52 90 -50 0 3 12 -4 26 -15 69 -54 197 -75 279 -46 22 8 43 15 46 15 3 0 6
-38 5 -83 l0 -84 -46 20 c-31 14 -67 21 -115 21 -83 1 -101 -7 -343 -149 -90
-52 -167 -95 -172 -95 -4 0 -30 -21 -58 -47 -87 -81 -120 -197 -88 -306 9 -30
52 -116 96 -192 81 -138 120 -209 120 -220 0 -3 -15 11 -32 32 -18 21 -44 49
-56 63 -41 44 -140 196 -182 279 -77 152 -140 367 -153 518 -2 24 -6 45 -8 47
-3 3 -19 -21 -37 -54 l-33 -59 21 -103 c42 -205 132 -414 253 -584 70 -99 222
-259 311 -327 48 -37 70 -65 121 -154 35 -59 59 -109 55 -111 -5 -2 -37 14
-72 35 -220 135 -432 344 -574 568 -68 107 -194 396 -194 444 0 5 -5 22 -11
38 l-10 27 -29 -52 -28 -52 30 -87 c147 -433 460 -792 873 -1006 103 -53 171
-83 209 -93 26 -6 25 -4 -24 81 -27 47 -50 91 -50 96 0 5 -4 9 -10 9 -5 0 -10
4 -10 10 0 5 -27 55 -60 111 -33 55 -60 102 -60 104 0 1 -29 52 -64 113 -36
61 -76 131 -89 154 -13 24 -59 104 -103 178 -127 219 -126 216 -121 287 5 70
31 120 80 157 31 23 205 126 214 126 2 0 21 11 41 25 20 14 41 25 47 25 5 0
22 -21 36 -48 24 -42 26 -49 12 -69 -73 -108 75 -242 175 -158 40 33 52 70 43
134 -2 15 -43 56 -68 69 -12 7 -35 12 -51 12 -25 0 -35 8 -56 44 -14 25 -26
49 -26 55 0 5 24 18 53 29 193 72 365 -111 276 -294 -11 -23 -27 -48 -37 -57
-22 -19 -242 -147 -253 -147 -5 0 -9 -4 -9 -8 0 -4 -14 -13 -30 -19 -24 -9
-38 -9 -63 1 -40 16 -69 13 -102 -8 -54 -35 -74 -100 -48 -154 52 -108 213
-80 228 40 2 17 10 35 17 40 7 4 73 43 147 86 183 105 236 161 256 275 8 39
24 47 46 21 7 -8 35 -27 61 -40 l49 -25 -50 -39 c-33 -26 -58 -58 -77 -97
l-29 -58 -2 -271 c-2 -282 3 -325 43 -391 39 -63 117 -120 189 -137 17 -4 129
-8 250 -7 140 0 214 -3 204 -9 -9 -5 -32 -11 -52 -14 -20 -2 -40 -7 -44 -9
-31 -19 -348 -28 -448 -14 -27 4 -57 8 -65 8 -37 2 -214 51 -286 79 -68 26
-90 36 -136 58 -11 4 61 -115 75 -126 15 -12 155 -56 239 -76 209 -48 497 -50
671 -5 21 6 50 12 65 14 31 4 63 15 182 60 79 30 94 32 215 33 l130 2 -25 -20
c-14 -11 -31 -20 -37 -20 -7 0 -13 -4 -13 -8 0 -9 -155 -85 -247 -121 -86 -34
-285 -81 -399 -95 -171 -21 -377 -12 -524 21 -36 8 -75 17 -87 19 -12 2 -34 9
-48 14 -15 6 -28 10 -30 10 -2 0 10 -25 27 -55 30 -52 35 -55 87 -66 31 -7 67
-13 81 -15 14 -2 45 -6 70 -10 64 -9 374 -10 445 -1 259 32 528 129 745 270
93 60 198 139 203 152 3 7 -205 10 -612 11 -339 0 -626 3 -639 7 -54 14 -119
81 -140 144 -6 18 -10 106 -9 209 l2 179 55 0 c50 0 57 -2 75 -30 43 -63 122
-74 179 -24 43 37 54 81 32 132 -38 91 -170 98 -216 12 -12 -22 -20 -25 -73
-25 l-59 0 6 51 c12 98 63 165 150 193 112 38 240 -29 274 -143 14 -45 16
-381 3 -381 -5 0 -22 -13 -38 -30 -71 -73 -16 -200 87 -200 120 0 162 142 65
222 -19 15 -20 29 -22 190 -1 95 -4 187 -8 203 -11 55 -45 113 -91 155 -25 23
-44 43 -42 44 2 1 27 13 56 26 29 13 58 30 64 37 18 22 25 15 31 -36 12 -105
67 -171 211 -255 355 -208 382 -221 470 -217 108 5 210 69 262 163 66 121 188
328 191 324 8 -7 -48 -160 -92 -251 -71 -149 -173 -292 -297 -417 -51 -52
-196 -168 -210 -168 -6 0 -8 -3 -5 -7 4 -4 37 -7 72 -8 65 -2 66 -1 123 48 98
84 182 176 254 277 148 208 236 421 275 665 14 92 21 109 80 213 36 61 67 112
70 112 7 0 -4 -245 -12 -300 -3 -19 -10 -57 -16 -85 -5 -27 -11 -60 -14 -73
-7 -37 -56 -194 -72 -232 -104 -240 -205 -398 -362 -563 -25 -27 -47 -52 -49
-55 -1 -4 23 -7 53 -7 61 0 74 10 155 115 19 25 37 47 40 50 13 10 97 137 127
190 58 103 73 130 74 138 1 4 8 21 15 37 45 103 96 264 109 345 3 19 8 42 10
50 5 16 12 73 21 155 15 143 -4 466 -28 491 -3 2 -38 -53 -78 -123 -406 -707
-526 -912 -549 -937 -37 -40 -97 -66 -157 -66 -57 0 -82 11 -276 124 l-117 67
29 48 c27 43 34 48 67 49 118 5 158 171 54 223 -111 55 -225 -64 -161 -168 12
-19 11 -27 -10 -67 -15 -30 -30 -46 -42 -46 -10 0 -41 22 -68 49 -47 47 -52
59 -64 141 -4 34 17 102 43 139 52 72 170 106 248 71 42 -19 283 -157 297
-170 4 -5 10 -23 11 -40 6 -67 99 -122 161 -95 32 13 66 48 71 70 2 8 5 23 7
33 8 40 -44 120 -79 123 -5 0 -19 2 -29 4 -11 2 -38 -3 -60 -10 -33 -12 -43
-12 -56 -1 -8 7 -72 45 -141 85 -198 113 -258 124 -389 67 -13 -5 -15 6 -12
76 2 46 5 84 7 86 2 2 17 -4 35 -13 39 -20 115 -30 173 -21 31 5 97 37 204 98
87 50 185 106 218 124 124 68 190 156 198 266 8 97 2 111 -215 488 -18 30 -13
28 33 -20 164 -168 292 -414 350 -669 6 -30 13 -66 15 -80 2 -14 5 -35 8 -46
2 -11 5 -35 5 -52 1 -18 4 -33 9 -33 4 0 21 24 38 53 l31 53 -18 88 c-10 49
-27 121 -39 160 -21 68 -98 256 -109 266 -3 3 -17 25 -30 50 -13 25 -38 65
-55 89 -17 24 -35 50 -41 59 -43 67 -196 228 -272 287 -65 49 -95 86 -148 179
-31 54 -54 100 -52 103 11 10 198 -111 286 -185 132 -112 263 -262 355 -404
83 -131 180 -354 212 -492 l7 -28 32 52 32 52 -27 77 c-39 109 -77 196 -117
271 -42 77 -136 221 -167 255 -11 13 -32 39 -46 56 -65 84 -301 299 -328 299
-6 0 -12 4 -14 8 -4 12 -109 78 -197 124 -79 41 -241 109 -241 100 0 -3 20
-39 44 -81 186 -322 394 -682 472 -817 103 -177 116 -219 94 -300 -19 -66 -65
-106 -231 -201 -80 -46 -148 -83 -152 -83 -4 0 -7 6 -7 14 0 8 -3 16 -7 18 -5
2 -16 17 -25 34 -16 29 -16 32 1 57 47 73 -15 179 -104 179 -83 0 -142 -84
-114 -159 17 -45 69 -83 113 -83 26 0 35 -7 59 -45 15 -25 27 -48 27 -50 0 -3
-19 -14 -42 -26 -80 -42 -195 -22 -254 43 -55 59 -74 158 -46 229 14 34 70 98
96 110 12 5 77 42 145 82 117 69 127 73 150 60 49 -25 108 -11 147 34 64 75 5
193 -96 193 -61 0 -108 -43 -119 -110 -6 -31 -15 -40 -96 -87 -50 -29 -97 -56
-105 -59 -50 -23 -139 -91 -163 -124 -31 -44 -57 -110 -57 -146 0 -30 -2 -30
-53 4 -23 15 -54 34 -69 41 l-27 14 49 44 c28 25 61 68 77 101 l28 57 -1 275
c0 240 -2 282 -18 329 -23 66 -88 136 -161 170 -48 23 -59 24 -277 25 -126 1
-228 4 -228 8 0 7 76 25 140 33 25 3 61 8 80 10 43 6 216 6 291 0 123 -9 325
-62 457 -121 30 -13 57 -22 59 -20 5 5 -57 109 -71 118 -13 9 -191 67 -226 73
-14 3 -47 9 -75 15 -126 25 -317 33 -455 18 -65 -7 -215 -37 -310 -63 -10 -3
-46 -17 -109 -42 -56 -23 -78 -26 -190 -27 -75 0 -126 3 -126 9 0 6 65 43 145
82 136 68 309 128 425 148 22 4 51 9 65 11 98 17 184 22 310 19 145 -4 175 -7
260 -25 25 -5 56 -12 70 -14 40 -8 70 -15 91 -21 26 -9 24 3 -10 56 -27 44
-31 46 -99 58 -81 14 -99 17 -197 27 -65 6 -214 12 -218 8z m-133 -633 c18
-34 5 -68 -29 -77 -40 -10 -75 10 -75 43 0 36 10 50 40 61 32 12 48 6 64 -27z
m237 -347 c15 -18 15 -60 -1 -79 -17 -21 -70 -19 -86 3 -45 58 40 133 87 76z
m850 3 c16 -14 19 -25 14 -45 -8 -32 -13 -38 -42 -46 -32 -10 -77 35 -68 67
14 46 57 57 96 24z m-1523 -383 c26 -18 30 -65 7 -84 -38 -32 -95 -4 -95 46 0
22 33 54 55 54 6 0 21 -7 33 -16z m1339 -10 c15 -23 15 -29 2 -52 -22 -40 -55
-47 -85 -17 -29 29 -30 49 -4 75 28 28 66 26 87 -6z m-1757 -37 c17 -30 9 -50
-26 -73 -30 -21 -68 3 -72 45 -6 61 67 82 98 28z m1203 -45 c106 -53 172 -133
201 -243 44 -172 -38 -342 -204 -422 -59 -29 -74 -32 -155 -31 -76 0 -99 5
-146 27 -119 57 -198 162 -217 287 -22 150 59 307 193 374 75 38 107 45 193
41 57 -2 87 -10 135 -33z m988 -654 c24 -44 -16 -95 -65 -82 -45 11 -52 78
-11 102 24 13 64 3 76 -20z m-456 -10 c14 -6 25 -16 26 -22 0 -6 2 -19 4 -28
4 -21 -30 -58 -54 -58 -9 0 -27 9 -40 21 -25 24 -21 54 11 82 24 20 21 20 53
5z m-1305 -17 c18 -35 12 -67 -15 -79 -14 -7 -32 -12 -40 -12 -40 0 -62 79
-27 99 29 17 70 13 82 -8z m-202 -377 c50 -35 12 -109 -51 -97 -46 9 -51 78
-7 100 32 16 31 16 58 -3z m862 1 c7 -8 13 -26 13 -40 0 -35 -20 -55 -54 -55
-28 0 -59 30 -59 59 0 42 73 68 100 36z m247 -371 c15 -24 15 -29 2 -53 -11
-20 -22 -26 -49 -26 -27 0 -38 6 -49 26 -13 24 -13 29 2 53 12 18 26 26 47 26
21 0 35 -8 47 -26z"/>
</g>
</svg>
